#!OML:ASF F:\VICON\USERDATA\INSTALL\rory3\rory3.ASF
:FULLY-SPECIFIED
:DEGREES
45
root -0.6814245343596134 17.019588209634957 0.5994485981183288 4.288904636605006 1.6757449051231856 0.8361527753402274
lfemur -13.912616995189191 -3.3997479819560326 -28.280795497977103
ltibia 44.467156195168975
lfoot -24.606976914351435 2.815003420087316
ltoes -2.6035444400006664
rfemur -36.407493776666755 -7.576721329938215 17.065933910101947
rtibia 114.60244773271478
rfoot 11.521539092955305 -3.2429553569711107
rtoes -3.0292789320695714
lowerback nan 0.20163604293902126 -4.15910589870494
upperback 0.5196828615763744 -0.180743184299903 -0.11309156424311162
thorax -9.189742012431205 0.09302339572166674 3.0455767601246073
lowerneck -23.02593480245895 -3.902948355792129 -1.7487429236692282
upperneck 12.323988795806764 -6.3345087294932085 3.5312517865750532
head 7.926153808486274 -2.429257326440064 0.8099300437404815
lclavicle 1.5880211378368417e-15 -7.390603928282297e-15
lhumerus -34.296434853870565 -18.85003817142848 96.63185960136832
lradius 108.32650100851957
lwrist 35.253553344904546
lhand -25.303448635690973 3.0050916034025352
lfingers nan
lthumb 1.2773364655631447 33.03820445870745
rclavicle 2.3073316948772872e-15 -6.392411659524804e-15
rhumerus -54.24318619559986 7.220329295406044 -100.86025012970164
rradius 103.39579623781876
rwrist -2.104333033312429
rhand -16.771032638309826 nan
rfingers nan
rthumb 9.927374810113214 10.148011844267142
46
root -0.6545728020138737 17.049503484438457 0.8688811596742774 4.475223089105977 1.9975046492520991 0.4973096678053128
lfemur -11.82422731352731 -3.8237404269778694 -28.194120861699528
ltibia 43.70932881453861
lfoot -24.89367222209225 3.375898622204221
ltoes -4.864652521662047
rfemur -39.30278678281467 -8.309400721492148 17.70228762187649
rtibia 114.23016376835386
rfoot 11.756459800319318 -1.5106616765817371
rtoes 2.8946717664756636
lowerback nan -0.17237739538280283 -4.018242582767993
upperback 0.5423236994597267 -0.6472824355514832 0.30150580428050033
thorax -9.122732345075427 -0.18360056410762093 3.503214561400715
lowerneck -23.367887053261477 -3.6770794224067282 -1.9611520136701013
upperneck 12.357722964042988 -5.846634805623688 3.3250755803473466
head 7.956455651749519 -2.2572817832075143 0.7727524785928008
lclavicle 5.285791290943195e-15 -7.908658917460699e-15
lhumerus -32.36243115975614 -18.439980723457673 96.46595679916099
lradius 109.30904186054151
lwrist 35.599964560803336
lhand -24.532202070916586 2.82148643746616
lfingers nan
lthumb 2.0189155879270113 32.84563927456221
rclavicle 6.088450606278678e-15 -6.865549313981821e-15
rhumerus -55.1842784890602 7.3646724422074294 -100.22715986087397
rradius 104.42066149824751
rwrist -5.336165534396718
rhand -15.681832735216771 nan
rfingers nan
rthumb 10.981360700607391 10.209042896496657
47
root -0.6369649491247387 17.086946947926762 1.8440199195818874 4.494842674678267 1.8241694195719431 0.3720370117572731
lfemur -9.474364125197946 -3.7916276197275582 -28.330228483185056
ltibia 42.64327696428213
lfoot -24.742089986491553 4.022805648118488
ltoes -8.487580462777206
rfemur -41.97847955259374 -8.435749629941986 18.17005721573159
rtibia 113.40988816797409
rfoot 8.780534973675396 -0.32422488365516333
rtoes -6.5657802394701035
lowerback nan -0.07087446232750838 -3.945693509100772
upperback 0.6217265384795627 -0.5979623528722933 0.3069232074621915
thorax -9.253639024292218 -0.2210314821908277 3.5046923849296547
lowerneck -24.135700738792657 -3.6648110017764512 -1.3517117411652795
upperneck 12.596809304680736 -5.9066245924053415 3.0879650790238555
head 8.114757525578101 -2.2713072887603873 0.5869770443584802
lclavicle -2.2954765425937922e-15 -1.902899719400581e-14
lhumerus -30.53849426888883 -19.00092645573507 96.06510414755626
lradius 109.94678315926762
lwrist 36.01370052927561
lhand -23.606879259942374 1.114546204915789
lfingers nan
lthumb 2.9088311547644716 31.099362527833296
rclavicle -1.139928735147081e-15 -1.781389847731781e-14
rhumerus -55.84694552123241 6.586927337204196 -99.86723557741983
rradius 105.4459569726944
rwrist -8.784638196512077
rhand -15.309159900632144 nan
rfingers nan
rthumb 11.378954252777165 10.291032677395378
48
root -0.6228896693821069 17.133041575084057 2.619510287141323 4.655791737940314 1.6464307184886604 0.15966859796147093
lfemur -7.073389175941128 -3.692024543528152 -28.40597828917172
ltibia 41.47496751271316
lfoot -24.145252893206763 4.437490042899705
ltoes -12.660887411332105
rfemur -44.48124111149093 -8.35021440462673 18.666735682289733
rtibia 112.11245289979925
rfoot 9.039116965391639 1.9486822277980442
rtoes 0.38914927127806687
lowerback nan -0.010546910956851119 -3.9325605823194842
upperback 0.6056004366791139 -0.5556127398900117 0.45141777865385313
thorax -9.305067804707546 -0.26136860212240975 3.687233873995548
lowerneck -24.357295204002853 -3.662282925374854 -0.8886970663576061
upperneck 12.491481681816559 -5.927051591814076 2.831150313237032
head 8.135860446195334 -2.2843658187281455 0.4173504958879942
lclavicle -3.059892824888599e-15 -1.0450501983377652e-14
lhumerus -29.19573675038389 -19.26738131106722 95.8340365880818
lradius 110.72985445439922
lwrist 36.680596286134424
lhand -22.39997255488527 -0.28327468089788677
lfingers nan
lthumb 4.063147483820746 29.660986688324925
rclavicle -1.7198074271101366e-15 -9.139395243524494e-15
rhumerus -56.77670800392188 5.960436784549686 -99.49839160160842
rradius 106.48306572071488
rwrist -11.672077685903073
rhand -15.286383938787964 nan
rfingers nan
rthumb 11.311401629938658 10.339718052702235
